<svg xmlns="http://www.w3.org/2000/svg" viewBox="0 0 40 40" width="40" height="40">
  <!-- Background circle -->
  <circle cx="20" cy="20" r="18" fill="#6AB0FF" opacity="0.12"/>
  <!-- Test tube body -->
  <rect x="14" y="6" width="8" height="22" rx="1" fill="none" stroke="#6AB0FF" stroke-width="2"/>
  <!-- Test tube rounded bottom -->
  <path d="M14 28 Q14 34 18 34 Q22 34 22 28" fill="none" stroke="#6AB0FF" stroke-width="2"/>
  <!-- Liquid in tube -->
  <path d="M15 22 L15 28 Q15 33 18 33 Q21 33 21 28 L21 22 Z" fill="#6AB0FF" opacity="0.35"/>
  <!-- Test tube rim -->
  <line x1="12" y1="6" x2="24" y2="6" stroke="#6AB0FF" stroke-width="2" stroke-linecap="round"/>
  <!-- AI sparkle top-right -->
  <path d="M30 8 L31 11 L34 12 L31 13 L30 16 L29 13 L26 12 L29 11 Z" fill="#FFD080"/>
  <!-- AI sparkle small -->
  <path d="M28 18 L28.5 19.5 L30 20 L28.5 20.5 L28 22 L27.5 20.5 L26 20 L27.5 19.5 Z" fill="#FFD080" opacity="0.7"/>
</svg>
